<?xml version="1.0" standalone="no"?><!DOCTYPE svg PUBLIC "-//W3C//DTD SVG 1.1//EN" "http://www.w3.org/Graphics/SVG/1.1/DTD/svg11.dtd"><svg t="1593660180278" class="icon" viewBox="0 0 1024 1024" version="1.1" xmlns="http://www.w3.org/2000/svg" p-id="1474" xmlns:xlink="http://www.w3.org/1999/xlink" width="200" height="200"><defs><style type="text/css"></style></defs><path d="M714.752 524.8c-39.936 0-76.8 11.776-107.52 32.768-0.512-6.656-3.584-13.312-8.704-17.92-16.384-15.36-34.304-28.16-53.248-39.424C594.944 460.8 624.64 400.384 624.64 334.848c0-116.736-94.72-211.456-211.456-211.456-116.736 0-211.456 94.72-211.456 211.456 0 66.048 29.696 125.952 79.36 165.376-83.456 47.104-138.24 137.216-138.24 235.52l0 146.432c0 15.872 12.8 28.672 28.672 28.672l175.616 0 142.336 0 172.544 0c5.12 0 10.24-1.536 14.336-3.584 12.288 2.56 25.088 3.584 38.4 3.584 106.496 0 193.024-86.528 193.024-193.024C908.288 610.816 821.76 524.8 714.752 524.8zM200.704 735.744c0-93.696 62.976-177.664 152.576-203.776 11.776-3.584 19.968-13.824 20.48-26.112 0.512-12.288-6.656-23.552-17.92-28.16-58.88-23.552-96.768-79.872-96.768-142.848 0-84.992 69.12-154.112 154.112-154.112s154.112 69.12 154.112 154.112c0 62.976-37.888 119.296-96.768 142.848-11.264 4.608-18.432 15.872-17.92 28.16 0.512 12.288 8.704 23.04 20.48 26.112 31.744 9.216 61.44 26.624 86.016 49.152 3.584 3.584 8.192 5.632 12.8 6.656-31.232 34.304-50.176 79.872-50.176 130.048 0 52.736 20.992 100.864 55.808 135.68l-62.976 0-32.768-194.56 22.528-56.832c3.584-8.704 2.56-18.944-3.072-26.624-5.12-7.68-14.336-12.8-24.064-12.8L360.448 562.688c-9.728 0-18.432 4.608-24.064 12.8-5.12 7.68-6.656 17.92-3.072 26.624l22.528 56.832-32.768 194.56L200.704 853.504 200.704 735.744zM381.44 853.504l31.744-187.392c1.536-3.584 2.048-7.68 1.536-11.264 0.512-7.168-2.048-13.824-5.632-18.944l-6.144-15.872 31.744 0-6.144 15.872c-4.096 5.12-6.144 11.776-5.632 18.944 0 4.096 0.512 7.68 1.536 11.264l31.744 187.392L381.44 853.504zM714.752 853.504c-74.752 0-135.68-60.928-135.68-135.68 0-74.752 60.928-135.68 135.68-135.68 74.752 0 135.68 60.928 135.68 135.68C850.432 792.576 789.504 853.504 714.752 853.504z" p-id="1475"></path><path d="M687.104 647.68l-28.16 0c-5.632 16.384-13.312 27.648-24.064 34.304l0 15.36C661.504 690.688 679.424 674.304 687.104 647.68z" p-id="1476"></path><path d="M781.824 654.848l-38.4 0 0-8.192-28.16 0 0 8.192-27.136 0 0 18.432 27.136 0 0 8.704-35.328 0 0 8.704-21.504 0c-5.12 15.36-13.312 26.624-25.088 33.792l0 16.384c4.608-1.536 8.704-2.56 12.8-4.096l0 65.536 27.136 0L673.28 716.8c3.072-5.12 6.144-10.752 8.704-16.896l33.28 0 0 9.216-29.696 0 0 17.408 29.696 0 0 10.752-31.744 0 0 17.408 31.744 0 0 11.264-38.4 0 0 17.408 38.4 0 0 18.432 28.16 0 0-18.432 46.592 0 0-17.408-46.592 0 0-11.264 40.448 0 0-17.408-40.448 0L743.424 727.04l14.336 0c16.384 0.512 24.576-7.168 24.064-23.552l0-3.584 8.704 0 0-18.432-8.704 0L781.824 654.848zM757.248 700.928c0 5.632-3.072 8.704-8.704 8.704l-4.608 0 0-9.216 13.312 0L757.248 700.928zM757.248 681.984l-13.312 0 0-8.704 13.312 0L757.248 681.984z" p-id="1477"></path></svg>